name Walk1.mot
datacolumns 19
datarows 30
range 2.27800000 2.30700000
endheader

                time	   L_ground_force_vx	   L_ground_force_vy	   L_ground_force_vz	   L_ground_force_px	   L_ground_force_py	   L_ground_force_pz	   R_ground_force_vx	   R_ground_force_vy	   R_ground_force_vz	   R_ground_force_px	   R_ground_force_py	   R_ground_force_pz	   L_ground_torque_x	   L_ground_torque_y	   L_ground_torque_z	   R_ground_torque_x	   R_ground_torque_y	   R_ground_torque_z	
          2.27800000	          0.17830905	          0.39941008	         -0.00605139	          0.00062700	          0.00000000	          0.00009433	        -24.11134961	        703.47623694	        -41.77130624	          0.16084311	          0.00000000	          0.09036514	          0.00000000	         -0.00022327	          0.00000000	          0.00000000	          7.45147633	          0.00000000	
          2.27900000	          0.17597754	          0.40114500	         -0.00722899	          0.00054379	          0.00000000	          0.00008505	        -23.64405820	        702.30705177	        -41.71836744	          0.16126797	          0.00000000	          0.09037486	          0.00000000	         -0.00022953	          0.00000000	          0.00000000	          7.40928237	          0.00000000	
          2.28000000	          0.17317929	          0.40121657	         -0.00827914	          0.00046559	          0.00000000	          0.00007624	        -23.17756722	        701.14534012	        -41.67004603	          0.16169013	          0.00000000	          0.09038414	          0.00000000	         -0.00023439	          0.00000000	          0.00000000	          7.36658542	          0.00000000	
          2.28100000	          0.16996455	          0.39976595	         -0.00920873	          0.00039229	          0.00000000	          0.00006789	        -22.71189008	        699.99125298	        -41.62628732	          0.16210966	          0.00000000	          0.09039300	          0.00000000	         -0.00023795	          0.00000000	          0.00000000	          7.32340143	          0.00000000	
          2.28200000	          0.16638088	          0.39692805	         -0.01002447	          0.00032373	          0.00000000	          0.00005999	        -22.24704038	        698.84493184	        -41.58703301	          0.16252660	          0.00000000	          0.09040143	          0.00000000	         -0.00024031	          0.00000000	          0.00000000	          7.27974631	          0.00000000	
          2.28300000	          0.16247320	          0.39283154	         -0.01073298	          0.00025978	          0.00000000	          0.00005253	        -21.78303224	        697.70650847	        -41.55222032	          0.16294102	          0.00000000	          0.09040942	          0.00000000	         -0.00024156	          0.00000000	          0.00000000	          7.23563566	          0.00000000	
          2.28400000	          0.15828382	          0.38759891	         -0.01134069	          0.00020029	          0.00000000	          0.00004552	        -21.31988052	        696.57610455	        -41.52178102	          0.16335299	          0.00000000	          0.09041699	          0.00000000	         -0.00024179	          0.00000000	          0.00000000	          7.19108464	          0.00000000	
          2.28500000	          0.15385252	          0.38134653	         -0.01185388	          0.00014510	          0.00000000	          0.00003892	        -20.85760071	        695.45383072	        -41.49564049	          0.16376257	          0.00000000	          0.09042411	          0.00000000	         -0.00024109	          0.00000000	          0.00000000	          7.14610780	          0.00000000	
          2.28600000	          0.14921661	          0.37418474	         -0.01227864	          0.00009405	          0.00000000	          0.00003274	        -20.39620860	        694.33978549	        -41.47371665	          0.16416983	          0.00000000	          0.09043078	          0.00000000	         -0.00023953	          0.00000000	          0.00000000	          7.10071886	          0.00000000	
          2.28700000	          0.14441102	          0.36621792	         -0.01262089	          0.00004699	          0.00000000	          0.00002696	        -19.93571987	        693.23405455	        -41.45591890	          0.16457482	          0.00000000	          0.09043700	          0.00000000	         -0.00023721	          0.00000000	          0.00000000	          7.05493048	          0.00000000	
          2.28800000	          0.13946832	          0.35754462	         -0.01288635	          0.00000375	          0.00000000	          0.00002158	        -19.47614989	        692.13671118	        -41.44214726	          0.16497764	          0.00000000	          0.09044275	          0.00000000	         -0.00023418	          0.00000000	          0.00000000	          7.00875396	          0.00000000	
          2.28900000	          0.13441885	          0.34825768	         -0.01308054	         -0.00003583	          0.00000000	          0.00001656	        -19.01751391	        691.04781830	        -41.43229163	          0.16537834	          0.00000000	          0.09044801	          0.00000000	         -0.00023053	          0.00000000	          0.00000000	          6.96219915	          0.00000000	
          2.29000000	          0.12929077	          0.33844437	         -0.01320879	         -0.00007190	          0.00000000	          0.00001191	        -18.55982755	        689.96743188	        -41.42623131	          0.16577701	          0.00000000	          0.09045277	          0.00000000	         -0.00022631	          0.00000000	          0.00000000	          6.91527433	          0.00000000	
          2.29100000	          0.12411014	          0.32818652	         -0.01327623	         -0.00010464	          0.00000000	          0.00000762	        -18.10310761	        688.89560493	        -41.42383457	          0.16617375	          0.00000000	          0.09045702	          0.00000000	         -0.00022160	          0.00000000	          0.00000000	          6.86798630	          0.00000000	
          2.29200000	          0.11890100	          0.31756070	         -0.01328776	         -0.00013420	          0.00000000	          0.00000365	        -17.64737284	        687.83239121	        -41.42495823	          0.16656864	          0.00000000	          0.09046076	          0.00000000	         -0.00021645	          0.00000000	          0.00000000	          6.82034053	          0.00000000	
          2.29300000	          0.11368547	          0.30663834	         -0.01324810	         -0.00016074	          0.00000000	          0.00000002	        -17.19264492	        686.77784779	        -41.42944715	          0.16696180	          0.00000000	          0.09046397	          0.00000000	         -0.00021093	          0.00000000	          0.00000000	          6.77234130	          0.00000000	
          2.29400000	          0.10848379	          0.29548594	         -0.01316175	         -0.00018441	          0.00000000	         -0.00000331	        -16.73894919	        685.73203646	        -41.43713370	          0.16735334	          0.00000000	          0.09046667	          0.00000000	         -0.00020507	          0.00000000	          0.00000000	          6.72399180	          0.00000000	
          2.29500000	          0.10331445	          0.28416518	         -0.01303301	         -0.00020537	          0.00000000	         -0.00000635	        -16.28631541	        684.69502415	        -41.44783720	          0.16774337	          0.00000000	          0.09046884	          0.00000000	         -0.00019894	          0.00000000	          0.00000000	          6.67529429	          0.00000000	
          2.29600000	          0.09819423	          0.27273317	         -0.01286597	         -0.00022378	          0.00000000	         -0.00000910	        -15.83477828	        683.66688304	        -41.46136348	          0.16813202	          0.00000000	          0.09047051	          0.00000000	         -0.00019258	          0.00000000	          0.00000000	          6.62624996	          0.00000000	
          2.29700000	          0.09313829	          0.26124256	         -0.01266451	         -0.00023978	          0.00000000	         -0.00001158	        -15.38437800	        682.64769055	        -41.47750447	          0.16851940	          0.00000000	          0.09047166	          0.00000000	         -0.00018603	          0.00000000	          0.00000000	          6.57685888	          0.00000000	
          2.29800000	          0.08816028	          0.24974175	         -0.01243232	         -0.00025350	          0.00000000	         -0.00001381	        -14.93516067	        681.63752941	        -41.49603818	          0.16890562	          0.00000000	          0.09047231	          0.00000000	         -0.00017933	          0.00000000	          0.00000000	          6.52711964	          0.00000000	
          2.29900000	          0.08327239	          0.23827508	         -0.01217290	         -0.00026511	          0.00000000	         -0.00001580	        -14.48717882	        680.63648820	        -41.51672898	          0.16929080	          0.00000000	          0.09047247	          0.00000000	         -0.00017253	          0.00000000	          0.00000000	          6.47702926	          0.00000000	
          2.30000000	          0.07848542	          0.22688296	         -0.01188954	         -0.00027472	          0.00000000	         -0.00001756	        -14.04049188	        679.64466263	        -41.53932858	          0.16967503	          0.00000000	          0.09047212	          0.00000000	         -0.00016565	          0.00000000	          0.00000000	          6.42658301	          0.00000000	
          2.30100000	          0.07380888	          0.21560211	         -0.01158534	         -0.00028248	          0.00000000	         -0.00001910	        -13.59516625	        678.66215769	        -41.56357732	          0.17005845	          0.00000000	          0.09047127	          0.00000000	         -0.00015873	          0.00000000	          0.00000000	          6.37577469	          0.00000000	
          2.30200000	          0.06925105	          0.20446570	         -0.01126322	         -0.00028852	          0.00000000	         -0.00002044	        -13.15127502	        677.68909042	        -41.58920593	          0.17044113	          0.00000000	          0.09046993	          0.00000000	         -0.00015180	          0.00000000	          0.00000000	          6.32459695	          0.00000000	
          2.30300000	          0.06481906	          0.19350352	         -0.01092594	         -0.00029295	          0.00000000	         -0.00002159	        -12.70889705	        676.72559222	        -41.61593730	          0.17082319	          0.00000000	          0.09046810	          0.00000000	         -0.00014489	          0.00000000	          0.00000000	          6.27304168	          0.00000000	
          2.30400000	          0.06051897	          0.18274218	         -0.01057604	         -0.00029589	          0.00000000	         -0.00002255	        -12.26811583	        675.77180976	        -41.64348814	          0.17120473	          0.00000000	          0.09046577	          0.00000000	         -0.00013802	          0.00000000	          0.00000000	          6.22110042	          0.00000000	
          2.30500000	          0.05635580	          0.17220528	         -0.01021593	         -0.00029747	          0.00000000	         -0.00002336	        -11.82901804	        674.82790412	        -41.67157051	          0.17158583	          0.00000000	          0.09046294	          0.00000000	         -0.00013121	          0.00000000	          0.00000000	          6.16876458	          0.00000000	
          2.30600000	          0.05233364	          0.16191355	         -0.00984783	         -0.00029779	          0.00000000	         -0.00002400	        -11.39169224	        673.89404880	        -41.69989331	          0.17196658	          0.00000000	          0.09045963	          0.00000000	         -0.00012448	          0.00000000	          0.00000000	          6.11602569	          0.00000000	
          2.30700000	          0.04845571	          0.15188503	         -0.00947382	         -0.00029696	          0.00000000	         -0.00002450	        -10.95622769	        672.97042738	        -41.72816382	          0.17234706	          0.00000000	          0.09045583	          0.00000000	         -0.00011785	          0.00000000	          0.00000000	          6.06287565	          0.00000000	
